<svg viewBox="0 0 100 122" xmlns="http://www.w3.org/2000/svg" role="img" aria-label="Mafatlal Since 1905">
  <path d="M10 18 C10 12 16 9 22 11 C28 13 33 13 39 10 C44 7 56 7 61 10 C67 13 72 13 78 11 C84 9 90 12 90 18 C91 58 86 92 50 118 C14 92 9 58 10 18 Z" fill="none" stroke="#ffffff" stroke-width="5"/>
  <path d="M10 18 C10 12 16 9 22 11 C28 13 33 13 39 10 C44 7 56 7 61 10 C67 13 72 13 78 11 C84 9 90 12 90 18 C91 58 86 92 50 118 C14 92 9 58 10 18 Z" fill="none" stroke="#ffffff" stroke-width="2" transform="translate(50,60) scale(0.84) translate(-50,-60)"/>
  <text x="50" y="48" text-anchor="middle" font-family="Georgia, 'Times New Roman', serif" font-size="13" letter-spacing="1.5" fill="#ffffff">SINCE</text>
  <text x="50" y="78" text-anchor="middle" font-family="Georgia, 'Times New Roman', serif" font-size="24" font-weight="700" fill="#ffffff">1905</text>
</svg>
